0
SECTION
2
HEADER
9
$ACADVER
1
AC1006
9
$INSBASE
10
0.0
20
0.0
30
0.0
9
$EXTMIN
10
0.0
20
0.0
9
$EXTMAX
10
0.0
20
0.0
0
ENDSEC
0
SECTION
2
TABLES
0
TABLE
2
LTYPE
70
1
0
LTYPE
2
CONTINUOUS
70
64
3
Solid line
72
65
73
0
40
0.0
0
ENDTAB
0
TABLE
2
LAYER
70
4
0
LAYER
2
PYDXF
70
64
62
7
6
continuous
0
LAYER
2
TEXT
70
64
62
2
6
continuous
0
LAYER
2
ROTOR
70
64
62
1
6
continuous
0
LAYER
2
STATOR
70
64
62
5
6
continuous
0
ENDTAB
0
TABLE
2
STYLE
70
1
0
STYLE
2
STANDARD
70
0
40
0
41
40
50
50
71
0
42
1
3
ARIAL.TTF
4

0
ENDTAB
0
TABLE
2
VIEW
70
0
0
ENDTAB
0
ENDSEC
0
SECTION
2
BLOCKS
0
ENDSEC
0
SECTION
2
ENTITIES
0
LINE
8
STATOR
10
6.0
20
0.0
11
5.94119015844
21
0.00493560327162
0
LINE
8
STATOR
10
5.94119015844
20
0.00493560327162
11
5.76959050095
21
0.038880915529
0
LINE
8
STATOR
10
5.76959050095
20
0.038880915529
11
5.49922150594
21
0.127889578554
0
LINE
8
STATOR
10
5.49922150594
20
0.127889578554
11
5.15193280002
21
0.292392919529
0
LINE
8
STATOR
10
5.15193280002
20
0.292392919529
11
4.75528258148
21
0.545084971875
0
LINE
8
STATOR
10
4.75528258148
20
0.545084971875
11
4.33986543507
21
0.889566247128
0
LINE
8
STATOR
10
4.33986543507
20
0.889566247128
11
3.93635001004
21
1.31987946345
0
LINE
8
STATOR
10
3.93635001004
20
1.31987946345
11
3.57251640584
21
1.82098311822
0
LINE
8
STATOR
10
3.57251640584
20
1.82098311822
11
3.27058311121
21
2.37011698052
0
LINE
8
STATOR
10
3.27058311121
20
2.37011698052
11
3.04508497187
21
2.93892626146
0
LINE
8
STATOR
10
3.04508497187
20
2.93892626146
11
2.90150969758
21
3.49613694312
0
LINE
8
STATOR
10
2.90150969758
20
3.49613694312
11
2.83582614273
21
4.01052078194
0
LINE
8
STATOR
10
2.83582614273
20
4.01052078194
11
2.83495027735
21
4.45386013148
0
LINE
8
STATOR
10
2.83495027735
20
4.45386013148
11
2.87810295437
21
4.80362273017
0
LINE
8
STATOR
10
2.87810295437
20
4.80362273017
11
2.93892626146
21
5.04508497187
0
LINE
8
STATOR
10
2.93892626146
20
5.04508497187
11
2.98815096927
21
5.17269614381
0
LINE
8
STATOR
10
2.98815096927
20
5.17269614381
11
3.00415116603
21
5.20437027442
0
LINE
8
STATOR
10
3.00415116603
20
5.20437027442
11
3.04324556048
21
5.33576263883
0
LINE
8
STATOR
10
3.04324556048
20
5.33576263883
11
3.05862554289
21
5.63212872117
0
LINE
8
STATOR
10
3.05862554289
20
5.63212872117
11
2.972135955
21
6.06961036177
0
LINE
8
STATOR
10
2.972135955
20
6.06961036177
11
2.72311646088
21
6.59270081331
0
LINE
8
STATOR
10
2.72311646088
20
6.59270081331
11
2.28025236323
21
7.12470064227
0
LINE
8
STATOR
10
2.28025236323
20
7.12470064227
11
1.64784587773
21
7.58222689895
0
LINE
8
STATOR
10
1.64784587773
20
7.58222689895
11
0.86531292827
21
7.89101415146
0
LINE
8
STATOR
10
0.86531292827
20
7.89101415146
11
-2.47341631447e-15
21
8.0
0
LINE
8
STATOR
10
-2.47341631447e-15
20
8.0
11
-0.86531292827
21
7.89101415146
0
LINE
8
STATOR
10
-0.86531292827
20
7.89101415146
11
-1.64784587773
21
7.58222689895
0
LINE
8
STATOR
10
-1.64784587773
20
7.58222689895
11
-2.28025236323
21
7.12470064227
0
LINE
8
STATOR
10
-2.28025236323
20
7.12470064227
11
-2.72311646088
21
6.59270081331
0
LINE
8
STATOR
10
-2.72311646088
20
6.59270081331
11
-2.972135955
21
6.06961036177
0
LINE
8
STATOR
10
-2.972135955
20
6.06961036177
11
-3.05862554289
21
5.63212872117
0
LINE
8
STATOR
10
-3.05862554289
20
5.63212872117
11
-3.04324556048
21
5.33576263883
0
LINE
8
STATOR
10
-3.04324556048
20
5.33576263883
11
-3.00415116603
21
5.20437027442
0
LINE
8
STATOR
10
-3.00415116603
20
5.20437027442
11
-2.98815096927
21
5.17269614381
0
LINE
8
STATOR
10
-2.98815096927
20
5.17269614381
11
-2.93892626146
21
5.04508497187
0
LINE
8
STATOR
10
-2.93892626146
20
5.04508497187
11
-2.87810295437
21
4.80362273017
0
LINE
8
STATOR
10
-2.87810295437
20
4.80362273017
11
-2.83495027735
21
4.45386013148
0
LINE
8
STATOR
10
-2.83495027735
20
4.45386013148
11
-2.83582614273
21
4.01052078194
0
LINE
8
STATOR
10
-2.83582614273
20
4.01052078194
11
-2.90150969758
21
3.49613694312
0
LINE
8
STATOR
10
-2.90150969758
20
3.49613694312
11
-3.04508497187
21
2.93892626146
0
LINE
8
STATOR
10
-3.04508497187
20
2.93892626146
11
-3.27058311121
21
2.37011698052
0
LINE
8
STATOR
10
-3.27058311121
20
2.37011698052
11
-3.57251640584
21
1.82098311822
0
LINE
8
STATOR
10
-3.57251640584
20
1.82098311822
11
-3.93635001004
21
1.31987946345
0
LINE
8
STATOR
10
-3.93635001004
20
1.31987946345
11
-4.33986543507
21
0.889566247128
0
LINE
8
STATOR
10
-4.33986543507
20
0.889566247128
11
-4.75528258148
21
0.545084971875
0
LINE
8
STATOR
10
-4.75528258148
20
0.545084971875
11
-5.15193280002
21
0.292392919529
0
LINE
8
STATOR
10
-5.15193280002
20
0.292392919529
11
-5.49922150594
21
0.127889578554
0
LINE
8
STATOR
10
-5.49922150594
20
0.127889578554
11
-5.76959050095
21
0.038880915529
0
LINE
8
STATOR
10
-5.76959050095
20
0.038880915529
11
-5.94119015844
21
0.00493560327162
0
LINE
8
STATOR
10
-5.94119015844
20
0.00493560327162
11
-6.0
21
4.4408920985e-16
0
LINE
8
STATOR
10
-6.0
20
4.4408920985e-16
11
-6.08136004653
21
-0.0137543451401
0
LINE
8
STATOR
10
-6.08136004653
20
-0.0137543451401
11
-6.30737891945
21
-0.106819392174
0
LINE
8
STATOR
10
-6.30737891945
20
-0.106819392174
11
-6.62732086794
21
-0.343086040971
0
LINE
8
STATOR
10
-6.62732086794
20
-0.343086040971
11
-6.96746344249
21
-0.758541959425
0
LINE
8
STATOR
10
-6.96746344249
20
-0.758541959425
11
-7.24518086636
21
-1.35410196625
0
LINE
8
STATOR
10
-7.24518086636
20
-1.35410196625
11
-7.38474208126
21
-2.09511819469
0
LINE
8
STATOR
10
-7.38474208126
20
-2.09511819469
11
-7.33181609569
21
-2.91766452143
0
LINE
8
STATOR
10
-7.33181609569
20
-2.91766452143
11
-7.0639232462
21
-3.7404002714
0
LINE
8
STATOR
10
-7.0639232462
20
-3.7404002714
11
-6.59484258444
21
-4.47975619227
0
LINE
8
STATOR
10
-6.59484258444
20
-4.47975619227
11
-5.972135955
21
-5.06555328234
0
LINE
8
STATOR
10
-5.972135955
20
-5.06555328234
11
-5.26825946587
21
-5.45408262956
0
LINE
8
STATOR
10
-5.26825946587
20
-5.45408262956
11
-4.56695359697
21
-5.636157667
0
LINE
8
STATOR
10
-4.56695359697
20
-5.636157667
11
-3.947501816
21
-5.63860718693
0
LINE
8
STATOR
10
-3.947501816
20
-5.63860718693
11
-3.46985322693
21
-5.51892593299
0
LINE
8
STATOR
10
-3.46985322693
20
-5.51892593299
11
-3.16344024975
21
-5.35410196625
0
LINE
8
STATOR
10
-3.16344024975
20
-5.35410196625
11
-3.02181893743
21
-5.22574837259
0
LINE
8
STATOR
10
-3.02181893743
20
-5.22574837259
11
-2.9965536228
21
-5.19055039459
0
LINE
8
STATOR
10
-2.9965536228
20
-5.19055039459
11
-2.9379134522
21
-5.11192051462
0
LINE
8
STATOR
10
-2.9379134522
20
-5.11192051462
11
-2.79167927972
21
-4.95789942382
0
LINE
8
STATOR
10
-2.79167927972
20
-4.95789942382
11
-2.54508497187
21
-4.75528258148
0
LINE
8
STATOR
10
-2.54508497187
20
-4.75528258148
11
-2.19450595212
21
-4.53389881127
0
LINE
8
STATOR
10
-2.19450595212
20
-4.53389881127
11
-1.7459235673
21
-4.32365100135
0
LINE
8
STATOR
10
-1.7459235673
20
-4.32365100135
11
-1.21445142011
21
-4.1515565122
0
LINE
8
STATOR
10
-1.21445142011
20
-4.1515565122
11
-0.622969592022
21
-4.03907712585
0
LINE
8
STATOR
10
-0.622969592022
20
-4.03907712585
11
-3.61332703812e-15
21
-4.0
0
LINE
8
STATOR
10
-3.61332703812e-15
20
-4.0
11
0.622969592022
21
-4.03907712585
0
LINE
8
STATOR
10
0.622969592022
20
-4.03907712585
11
1.21445142011
21
-4.1515565122
0
LINE
8
STATOR
10
1.21445142011
20
-4.1515565122
11
1.7459235673
21
-4.32365100135
0
LINE
8
STATOR
10
1.7459235673
20
-4.32365100135
11
2.19450595212
21
-4.53389881127
0
LINE
8
STATOR
10
2.19450595212
20
-4.53389881127
11
2.54508497187
21
-4.75528258148
0
LINE
8
STATOR
10
2.54508497187
20
-4.75528258148
11
2.79167927972
21
-4.95789942382
0
LINE
8
STATOR
10
2.79167927972
20
-4.95789942382
11
2.9379134522
21
-5.11192051462
0
LINE
8
STATOR
10
2.9379134522
20
-5.11192051462
11
2.9965536228
21
-5.19055039459
0
LINE
8
STATOR
10
2.9965536228
20
-5.19055039459
11
3.02181893743
21
-5.22574837259
0
LINE
8
STATOR
10
3.02181893743
20
-5.22574837259
11
3.16344024975
21
-5.35410196625
0
LINE
8
STATOR
10
3.16344024975
20
-5.35410196625
11
3.46985322693
21
-5.51892593299
0
LINE
8
STATOR
10
3.46985322693
20
-5.51892593299
11
3.947501816
21
-5.63860718693
0
LINE
8
STATOR
10
3.947501816
20
-5.63860718693
11
4.56695359697
21
-5.636157667
0
LINE
8
STATOR
10
4.56695359697
20
-5.636157667
11
5.26825946587
21
-5.45408262956
0
LINE
8
STATOR
10
5.26825946587
20
-5.45408262956
11
5.972135955
21
-5.06555328234
0
LINE
8
STATOR
10
5.972135955
20
-5.06555328234
11
6.59484258444
21
-4.47975619227
0
LINE
8
STATOR
10
6.59484258444
20
-4.47975619227
11
7.0639232462
21
-3.7404002714
0
LINE
8
STATOR
10
7.0639232462
20
-3.7404002714
11
7.33181609569
21
-2.91766452143
0
LINE
8
STATOR
10
7.33181609569
20
-2.91766452143
11
7.38474208126
21
-2.09511819469
0
LINE
8
STATOR
10
7.38474208126
20
-2.09511819469
11
7.24518086636
21
-1.35410196625
0
LINE
8
STATOR
10
7.24518086636
20
-1.35410196625
11
6.96746344249
21
-0.758541959425
0
LINE
8
STATOR
10
6.96746344249
20
-0.758541959425
11
6.62732086794
21
-0.343086040971
0
LINE
8
STATOR
10
6.62732086794
20
-0.343086040971
11
6.30737891945
21
-0.106819392174
0
LINE
8
STATOR
10
6.30737891945
20
-0.106819392174
11
6.08136004653
21
-0.0137543451401
0
LINE
8
STATOR
10
6.08136004653
20
-0.0137543451401
11
6.0
21
-8.881784197e-16
0
ENDSEC
0
EOF
