0
SECTION
2
HEADER
9
$ACADVER
1
AC1006
9
$INSBASE
10
0.0
20
0.0
30
0.0
9
$EXTMIN
10
0.0
20
0.0
9
$EXTMAX
10
0.0
20
0.0
0
ENDSEC
0
SECTION
2
TABLES
0
TABLE
2
LTYPE
70
1
0
LTYPE
2
CONTINUOUS
70
64
3
Solid line
72
65
73
0
40
0.0
0
ENDTAB
0
TABLE
2
LAYER
70
4
0
LAYER
2
PYDXF
70
64
62
7
6
continuous
0
LAYER
2
TEXT
70
64
62
2
6
continuous
0
LAYER
2
ROTOR
70
64
62
1
6
continuous
0
LAYER
2
STATOR
70
64
62
5
6
continuous
0
ENDTAB
0
TABLE
2
STYLE
70
1
0
STYLE
2
STANDARD
70
0
40
0
41
40
50
50
71
0
42
1
3
ARIAL.TTF
4

0
ENDTAB
0
TABLE
2
VIEW
70
0
0
ENDTAB
0
ENDSEC
0
SECTION
2
BLOCKS
0
ENDSEC
0
SECTION
2
ENTITIES
0
LINE
8
ROTOR
10
2.0
20
0.0
11
1.99605345686
21
0.0
0
LINE
8
ROTOR
10
1.99605345686
20
0.0
11
1.98422940263
21
0.0
0
LINE
8
ROTOR
10
1.98422940263
20
0.0
11
1.96457450146
21
0.0
0
LINE
8
ROTOR
10
1.96457450146
20
0.0
11
1.93716632226
21
0.0
0
LINE
8
ROTOR
10
1.93716632226
20
0.0
11
1.90211303259
21
0.0
0
LINE
8
ROTOR
10
1.90211303259
20
0.0
11
1.85955297178
21
0.0
0
LINE
8
ROTOR
10
1.85955297178
20
0.0
11
1.80965410493
21
0.0
0
LINE
8
ROTOR
10
1.80965410493
20
0.0
11
1.75261336009
21
0.0
0
LINE
8
ROTOR
10
1.75261336009
20
0.0
11
1.688655851
21
0.0
0
LINE
8
ROTOR
10
1.688655851
20
0.0
11
1.61803398875
21
0.0
0
LINE
8
ROTOR
10
1.61803398875
20
0.0
11
1.54102648555
21
0.0
0
LINE
8
ROTOR
10
1.54102648555
20
0.0
11
1.45793725484
21
0.0
0
LINE
8
ROTOR
10
1.45793725484
20
0.0
11
1.36909421186
21
0.0
0
LINE
8
ROTOR
10
1.36909421186
20
0.0
11
1.2748479795
21
0.0
0
LINE
8
ROTOR
10
1.2748479795
20
0.0
11
1.17557050458
21
0.0
0
LINE
8
ROTOR
10
1.17557050458
20
0.0
11
1.07165358996
21
0.0
0
LINE
8
ROTOR
10
1.07165358996
20
0.0
11
0.963507348203
21
0.0
0
LINE
8
ROTOR
10
0.963507348203
20
0.0
11
0.85155858313
21
0.0
0
LINE
8
ROTOR
10
0.85155858313
20
0.0
11
0.736249105369
21
0.0
0
LINE
8
ROTOR
10
0.736249105369
20
0.0
11
0.61803398875
21
0.0
0
LINE
8
ROTOR
10
0.61803398875
20
0.0
11
0.49737977433
21
0.0
0
LINE
8
ROTOR
10
0.49737977433
20
0.0
11
0.374762629171
21
0.0
0
LINE
8
ROTOR
10
0.374762629171
20
0.0
11
0.250666467129
21
0.0
0
LINE
8
ROTOR
10
0.250666467129
20
0.0
11
0.125581039059
21
0.0
0
LINE
8
ROTOR
10
0.125581039059
20
0.0
11
-3.21624529935e-16
21
0.0
0
LINE
8
ROTOR
10
-3.21624529935e-16
20
0.0
11
-0.125581039059
21
0.0
0
LINE
8
ROTOR
10
-0.125581039059
20
0.0
11
-0.250666467129
21
0.0
0
LINE
8
ROTOR
10
-0.250666467129
20
0.0
11
-0.374762629171
21
0.0
0
LINE
8
ROTOR
10
-0.374762629171
20
0.0
11
-0.49737977433
21
0.0
0
LINE
8
ROTOR
10
-0.49737977433
20
0.0
11
-0.61803398875
21
0.0
0
LINE
8
ROTOR
10
-0.61803398875
20
0.0
11
-0.736249105369
21
0.0
0
LINE
8
ROTOR
10
-0.736249105369
20
0.0
11
-0.85155858313
21
0.0
0
LINE
8
ROTOR
10
-0.85155858313
20
0.0
11
-0.963507348203
21
0.0
0
LINE
8
ROTOR
10
-0.963507348203
20
0.0
11
-1.07165358996
21
0.0
0
LINE
8
ROTOR
10
-1.07165358996
20
0.0
11
-1.17557050458
21
0.0
0
LINE
8
ROTOR
10
-1.17557050458
20
0.0
11
-1.2748479795
21
0.0
0
LINE
8
ROTOR
10
-1.2748479795
20
0.0
11
-1.36909421186
21
0.0
0
LINE
8
ROTOR
10
-1.36909421186
20
0.0
11
-1.45793725484
21
0.0
0
LINE
8
ROTOR
10
-1.45793725484
20
0.0
11
-1.54102648555
21
0.0
0
LINE
8
ROTOR
10
-1.54102648555
20
0.0
11
-1.61803398875
21
0.0
0
LINE
8
ROTOR
10
-1.61803398875
20
0.0
11
-1.688655851
21
0.0
0
LINE
8
ROTOR
10
-1.688655851
20
0.0
11
-1.75261336009
21
0.0
0
LINE
8
ROTOR
10
-1.75261336009
20
0.0
11
-1.80965410493
21
0.0
0
LINE
8
ROTOR
10
-1.80965410493
20
0.0
11
-1.85955297178
21
0.0
0
LINE
8
ROTOR
10
-1.85955297178
20
0.0
11
-1.90211303259
21
0.0
0
LINE
8
ROTOR
10
-1.90211303259
20
0.0
11
-1.93716632226
21
0.0
0
LINE
8
ROTOR
10
-1.93716632226
20
0.0
11
-1.96457450146
21
0.0
0
LINE
8
ROTOR
10
-1.96457450146
20
0.0
11
-1.98422940263
21
0.0
0
LINE
8
ROTOR
10
-1.98422940263
20
0.0
11
-1.99605345686
21
0.0
0
LINE
8
ROTOR
10
-1.99605345686
20
0.0
11
-2.0
21
4.4408920985e-16
0
LINE
8
ROTOR
10
-2.0
20
4.4408920985e-16
11
-2.01179293456
21
-0.000990244002215
0
LINE
8
ROTOR
10
-2.01179293456
20
-0.000990244002215
11
-2.04656761806
21
-0.00787514800823
0
LINE
8
ROTOR
10
-2.04656761806
20
-0.00787514800823
11
-2.10253382668
21
-0.0263171487782
0
LINE
8
ROTOR
10
-2.10253382668
20
-0.0263171487782
11
-2.17678085596
21
-0.0615225555659
0
LINE
8
ROTOR
10
-2.17678085596
20
-0.0615225555659
11
-2.26538429659
21
-0.11803398875
0
LINE
8
ROTOR
10
-2.26538429659
20
-0.11803398875
11
-2.3635501661
21
-0.199546605588
0
LINE
8
ROTOR
10
-2.3635501661
20
-0.199546605588
11
-2.46579127023
21
-0.308754713567
0
LINE
8
ROTOR
10
-2.46579127023
20
-0.308754713567
11
-2.5661295206
21
-0.447234293877
0
LINE
8
ROTOR
10
-2.5661295206
20
-0.447234293877
11
-2.65831701007
21
-0.615365683623
0
LINE
8
ROTOR
10
-2.65831701007
20
-0.615365683623
11
-2.7360679775
21
-0.812299240582
0
LINE
8
ROTOR
10
-2.7360679775
20
-0.812299240582
11
-2.79329340243
21
-1.0359652892
0
LINE
8
ROTOR
10
-2.79329340243
20
-1.0359652892
11
-2.82432987201
21
-1.28312807501
0
LINE
8
ROTOR
10
-2.82432987201
20
-1.28312807501
11
-2.82415456056
21
-1.54948189252
0
LINE
8
ROTOR
10
-2.82415456056
20
-1.54948189252
11
-2.78857864929
21
-1.82978605423
0
LINE
8
ROTOR
10
-2.78857864929
20
-1.82978605423
11
-2.71441227317
21
-2.11803398875
0
LINE
8
ROTOR
10
-2.71441227317
20
-2.11803398875
11
-2.59959508625
21
-2.40765054294
0
LINE
8
ROTOR
10
-2.59959508625
20
-2.40765054294
11
-2.44328775073
21
-2.69171055966
0
LINE
8
ROTOR
10
-2.44328775073
20
-2.69171055966
11
-2.24592103582
21
-2.96317104456
0
LINE
8
ROTOR
10
-2.24592103582
20
-2.96317104456
11
-2.00920071052
21
-3.21510874923
0
LINE
8
ROTOR
10
-2.00920071052
20
-3.21510874923
11
-1.7360679775
21
-3.44095480118
0
LINE
8
ROTOR
10
-1.7360679775
20
-3.44095480118
11
-1.43061676742
21
-3.63471811081
0
LINE
8
ROTOR
10
-1.43061676742
20
-3.63471811081
11
-1.09797073874
21
-3.79118967769
0
LINE
8
ROTOR
10
-1.09797073874
20
-3.79118967769
11
-0.744124253378
21
-3.90612058983
0
LINE
8
ROTOR
10
-0.744124253378
20
-3.90612058983
11
-0.375752873174
21
-3.97636743601
0
LINE
8
ROTOR
10
-0.375752873174
20
-3.97636743601
11
-1.10218211923e-15
21
-4.0
0
LINE
8
ROTOR
10
-1.10218211923e-15
20
-4.0
11
0.375752873174
21
-3.97636743601
0
LINE
8
ROTOR
10
0.375752873174
20
-3.97636743601
11
0.744124253378
21
-3.90612058983
0
LINE
8
ROTOR
10
0.744124253378
20
-3.90612058983
11
1.09797073874
21
-3.79118967769
0
LINE
8
ROTOR
10
1.09797073874
20
-3.79118967769
11
1.43061676742
21
-3.63471811081
0
LINE
8
ROTOR
10
1.43061676742
20
-3.63471811081
11
1.7360679775
21
-3.44095480118
0
LINE
8
ROTOR
10
1.7360679775
20
-3.44095480118
11
2.00920071052
21
-3.21510874923
0
LINE
8
ROTOR
10
2.00920071052
20
-3.21510874923
11
2.24592103582
21
-2.96317104456
0
LINE
8
ROTOR
10
2.24592103582
20
-2.96317104456
11
2.44328775073
21
-2.69171055966
0
LINE
8
ROTOR
10
2.44328775073
20
-2.69171055966
11
2.59959508625
21
-2.40765054294
0
LINE
8
ROTOR
10
2.59959508625
20
-2.40765054294
11
2.71441227317
21
-2.11803398875
0
LINE
8
ROTOR
10
2.71441227317
20
-2.11803398875
11
2.78857864929
21
-1.82978605423
0
LINE
8
ROTOR
10
2.78857864929
20
-1.82978605423
11
2.82415456056
21
-1.54948189252
0
LINE
8
ROTOR
10
2.82415456056
20
-1.54948189252
11
2.82432987201
21
-1.28312807501
0
LINE
8
ROTOR
10
2.82432987201
20
-1.28312807501
11
2.79329340243
21
-1.0359652892
0
LINE
8
ROTOR
10
2.79329340243
20
-1.0359652892
11
2.7360679775
21
-0.812299240582
0
LINE
8
ROTOR
10
2.7360679775
20
-0.812299240582
11
2.65831701007
21
-0.615365683623
0
LINE
8
ROTOR
10
2.65831701007
20
-0.615365683623
11
2.5661295206
21
-0.447234293877
0
LINE
8
ROTOR
10
2.5661295206
20
-0.447234293877
11
2.46579127023
21
-0.308754713567
0
LINE
8
ROTOR
10
2.46579127023
20
-0.308754713567
11
2.3635501661
21
-0.199546605588
0
LINE
8
ROTOR
10
2.3635501661
20
-0.199546605588
11
2.26538429659
21
-0.11803398875
0
LINE
8
ROTOR
10
2.26538429659
20
-0.11803398875
11
2.17678085596
21
-0.0615225555659
0
LINE
8
ROTOR
10
2.17678085596
20
-0.0615225555659
11
2.10253382668
21
-0.0263171487782
0
LINE
8
ROTOR
10
2.10253382668
20
-0.0263171487782
11
2.04656761806
21
-0.00787514800823
0
LINE
8
ROTOR
10
2.04656761806
20
-0.00787514800823
11
2.01179293456
21
-0.000990244002216
0
LINE
8
ROTOR
10
2.01179293456
20
-0.000990244002216
11
2.0
21
-8.881784197e-16
0
ENDSEC
0
EOF
