0
SECTION
2
HEADER
9
$ACADVER
1
AC1006
9
$INSBASE
10
0.0
20
0.0
30
0.0
9
$EXTMIN
10
0.0
20
0.0
9
$EXTMAX
10
0.0
20
0.0
0
ENDSEC
0
SECTION
2
TABLES
0
TABLE
2
LTYPE
70
1
0
LTYPE
2
CONTINUOUS
70
64
3
Solid line
72
65
73
0
40
0.0
0
ENDTAB
0
TABLE
2
LAYER
70
4
0
LAYER
2
PYDXF
70
64
62
7
6
continuous
0
LAYER
2
TEXT
70
64
62
2
6
continuous
0
LAYER
2
ROTOR
70
64
62
1
6
continuous
0
LAYER
2
STATOR
70
64
62
5
6
continuous
0
ENDTAB
0
TABLE
2
STYLE
70
1
0
STYLE
2
STANDARD
70
0
40
0
41
40
50
50
71
0
42
1
3
ARIAL.TTF
4

0
ENDTAB
0
TABLE
2
VIEW
70
0
0
ENDTAB
0
ENDSEC
0
SECTION
2
BLOCKS
0
ENDSEC
0
SECTION
2
ENTITIES
0
LINE
8
STATOR
10
4.0
20
0.0
11
3.97636743601
21
0.000990244002216
0
LINE
8
STATOR
10
3.97636743601
20
0.000990244002216
11
3.90612058983
21
0.00787514800823
0
LINE
8
STATOR
10
3.90612058983
20
0.00787514800823
11
3.79118967769
21
0.0263171487782
0
LINE
8
STATOR
10
3.79118967769
20
0.0263171487782
11
3.63471811081
21
0.0615225555659
0
LINE
8
STATOR
10
3.63471811081
20
0.0615225555659
11
3.44095480118
21
0.11803398875
0
LINE
8
STATOR
10
3.44095480118
20
0.11803398875
11
3.21510874923
21
0.199546605588
0
LINE
8
STATOR
10
3.21510874923
20
0.199546605588
11
2.96317104456
21
0.308754713567
0
LINE
8
STATOR
10
2.96317104456
20
0.308754713567
11
2.69171055966
21
0.447234293877
0
LINE
8
STATOR
10
2.69171055966
20
0.447234293877
11
2.40765054294
21
0.615365683623
0
LINE
8
STATOR
10
2.40765054294
20
0.615365683623
11
2.11803398875
21
0.812299240582
0
LINE
8
STATOR
10
2.11803398875
20
0.812299240582
11
1.82978605423
21
1.0359652892
0
LINE
8
STATOR
10
1.82978605423
20
1.0359652892
11
1.54948189252
21
1.28312807501
0
LINE
8
STATOR
10
1.54948189252
20
1.28312807501
11
1.28312807501
21
1.54948189252
0
LINE
8
STATOR
10
1.28312807501
20
1.54948189252
11
1.0359652892
21
1.82978605423
0
LINE
8
STATOR
10
1.0359652892
20
1.82978605423
11
0.812299240582
21
2.11803398875
0
LINE
8
STATOR
10
0.812299240582
20
2.11803398875
11
0.615365683623
21
2.40765054294
0
LINE
8
STATOR
10
0.615365683623
20
2.40765054294
11
0.447234293877
21
2.69171055966
0
LINE
8
STATOR
10
0.447234293877
20
2.69171055966
11
0.308754713567
21
2.96317104456
0
LINE
8
STATOR
10
0.308754713567
20
2.96317104456
11
0.199546605588
21
3.21510874923
0
LINE
8
STATOR
10
0.199546605588
20
3.21510874923
11
0.11803398875
21
3.44095480118
0
LINE
8
STATOR
10
0.11803398875
20
3.44095480118
11
0.0615225555659
21
3.63471811081
0
LINE
8
STATOR
10
0.0615225555659
20
3.63471811081
11
0.0263171487782
21
3.79118967769
0
LINE
8
STATOR
10
0.0263171487782
20
3.79118967769
11
0.00787514800823
21
3.90612058983
0
LINE
8
STATOR
10
0.00787514800823
20
3.90612058983
11
0.000990244002215
21
3.97636743601
0
LINE
8
STATOR
10
0.000990244002215
20
3.97636743601
11
-2.22044604925e-16
21
4.0
0
LINE
8
STATOR
10
-2.22044604925e-16
20
4.0
11
-0.00493560327162
21
4.03907712585
0
LINE
8
STATOR
10
-0.00493560327162
20
4.03907712585
11
-0.038880915529
21
4.1515565122
0
LINE
8
STATOR
10
-0.038880915529
20
4.1515565122
11
-0.127889578554
21
4.32365100135
0
LINE
8
STATOR
10
-0.127889578554
20
4.32365100135
11
-0.292392919529
21
4.53389881127
0
LINE
8
STATOR
10
-0.292392919529
20
4.53389881127
11
-0.545084971875
21
4.75528258148
0
LINE
8
STATOR
10
-0.545084971875
20
4.75528258148
11
-0.889566247128
21
4.95789942382
0
LINE
8
STATOR
10
-0.889566247128
20
4.95789942382
11
-1.31987946345
21
5.11192051462
0
LINE
8
STATOR
10
-1.31987946345
20
5.11192051462
11
-1.82098311822
21
5.19055039459
0
LINE
8
STATOR
10
-1.82098311822
20
5.19055039459
11
-2.37011698052
21
5.17269614381
0
LINE
8
STATOR
10
-2.37011698052
20
5.17269614381
11
-2.93892626146
21
5.04508497187
0
LINE
8
STATOR
10
-2.93892626146
20
5.04508497187
11
-3.49613694312
21
4.80362273017
0
LINE
8
STATOR
10
-3.49613694312
20
4.80362273017
11
-4.01052078194
21
4.45386013148
0
LINE
8
STATOR
10
-4.01052078194
20
4.45386013148
11
-4.45386013148
21
4.01052078194
0
LINE
8
STATOR
10
-4.45386013148
20
4.01052078194
11
-4.80362273017
21
3.49613694312
0
LINE
8
STATOR
10
-4.80362273017
20
3.49613694312
11
-5.04508497187
21
2.93892626146
0
LINE
8
STATOR
10
-5.04508497187
20
2.93892626146
11
-5.17269614381
21
2.37011698052
0
LINE
8
STATOR
10
-5.17269614381
20
2.37011698052
11
-5.19055039459
21
1.82098311822
0
LINE
8
STATOR
10
-5.19055039459
20
1.82098311822
11
-5.11192051462
21
1.31987946345
0
LINE
8
STATOR
10
-5.11192051462
20
1.31987946345
11
-4.95789942382
21
0.889566247128
0
LINE
8
STATOR
10
-4.95789942382
20
0.889566247128
11
-4.75528258148
21
0.545084971875
0
LINE
8
STATOR
10
-4.75528258148
20
0.545084971875
11
-4.53389881127
21
0.292392919529
0
LINE
8
STATOR
10
-4.53389881127
20
0.292392919529
11
-4.32365100135
21
0.127889578554
0
LINE
8
STATOR
10
-4.32365100135
20
0.127889578554
11
-4.1515565122
21
0.038880915529
0
LINE
8
STATOR
10
-4.1515565122
20
0.038880915529
11
-4.03907712585
21
0.00493560327162
0
LINE
8
STATOR
10
-4.03907712585
20
0.00493560327162
11
-4.0
21
4.4408920985e-16
0
LINE
8
STATOR
10
-4.0
20
4.4408920985e-16
11
-3.97636743601
21
-0.000990244002215
0
LINE
8
STATOR
10
-3.97636743601
20
-0.000990244002215
11
-3.90612058983
21
-0.00787514800823
0
LINE
8
STATOR
10
-3.90612058983
20
-0.00787514800823
11
-3.79118967769
21
-0.0263171487782
0
LINE
8
STATOR
10
-3.79118967769
20
-0.0263171487782
11
-3.63471811081
21
-0.0615225555659
0
LINE
8
STATOR
10
-3.63471811081
20
-0.0615225555659
11
-3.44095480118
21
-0.11803398875
0
LINE
8
STATOR
10
-3.44095480118
20
-0.11803398875
11
-3.21510874923
21
-0.199546605588
0
LINE
8
STATOR
10
-3.21510874923
20
-0.199546605588
11
-2.96317104456
21
-0.308754713567
0
LINE
8
STATOR
10
-2.96317104456
20
-0.308754713567
11
-2.69171055966
21
-0.447234293877
0
LINE
8
STATOR
10
-2.69171055966
20
-0.447234293877
11
-2.40765054294
21
-0.615365683623
0
LINE
8
STATOR
10
-2.40765054294
20
-0.615365683623
11
-2.11803398875
21
-0.812299240582
0
LINE
8
STATOR
10
-2.11803398875
20
-0.812299240582
11
-1.82978605423
21
-1.0359652892
0
LINE
8
STATOR
10
-1.82978605423
20
-1.0359652892
11
-1.54948189252
21
-1.28312807501
0
LINE
8
STATOR
10
-1.54948189252
20
-1.28312807501
11
-1.28312807501
21
-1.54948189252
0
LINE
8
STATOR
10
-1.28312807501
20
-1.54948189252
11
-1.0359652892
21
-1.82978605423
0
LINE
8
STATOR
10
-1.0359652892
20
-1.82978605423
11
-0.812299240582
21
-2.11803398875
0
LINE
8
STATOR
10
-0.812299240582
20
-2.11803398875
11
-0.615365683623
21
-2.40765054294
0
LINE
8
STATOR
10
-0.615365683623
20
-2.40765054294
11
-0.447234293877
21
-2.69171055966
0
LINE
8
STATOR
10
-0.447234293877
20
-2.69171055966
11
-0.308754713567
21
-2.96317104456
0
LINE
8
STATOR
10
-0.308754713567
20
-2.96317104456
11
-0.199546605588
21
-3.21510874923
0
LINE
8
STATOR
10
-0.199546605588
20
-3.21510874923
11
-0.11803398875
21
-3.44095480118
0
LINE
8
STATOR
10
-0.11803398875
20
-3.44095480118
11
-0.0615225555659
21
-3.63471811081
0
LINE
8
STATOR
10
-0.0615225555659
20
-3.63471811081
11
-0.0263171487782
21
-3.79118967769
0
LINE
8
STATOR
10
-0.0263171487782
20
-3.79118967769
11
-0.00787514800823
21
-3.90612058983
0
LINE
8
STATOR
10
-0.00787514800823
20
-3.90612058983
11
-0.000990244002216
21
-3.97636743601
0
LINE
8
STATOR
10
-0.000990244002216
20
-3.97636743601
11
1.7763568394e-15
21
-4.0
0
LINE
8
STATOR
10
1.7763568394e-15
20
-4.0
11
0.00493560327162
21
-4.03907712585
0
LINE
8
STATOR
10
0.00493560327162
20
-4.03907712585
11
0.038880915529
21
-4.1515565122
0
LINE
8
STATOR
10
0.038880915529
20
-4.1515565122
11
0.127889578554
21
-4.32365100135
0
LINE
8
STATOR
10
0.127889578554
20
-4.32365100135
11
0.292392919529
21
-4.53389881127
0
LINE
8
STATOR
10
0.292392919529
20
-4.53389881127
11
0.545084971875
21
-4.75528258148
0
LINE
8
STATOR
10
0.545084971875
20
-4.75528258148
11
0.889566247128
21
-4.95789942382
0
LINE
8
STATOR
10
0.889566247128
20
-4.95789942382
11
1.31987946345
21
-5.11192051462
0
LINE
8
STATOR
10
1.31987946345
20
-5.11192051462
11
1.82098311822
21
-5.19055039459
0
LINE
8
STATOR
10
1.82098311822
20
-5.19055039459
11
2.37011698052
21
-5.17269614381
0
LINE
8
STATOR
10
2.37011698052
20
-5.17269614381
11
2.93892626146
21
-5.04508497187
0
LINE
8
STATOR
10
2.93892626146
20
-5.04508497187
11
3.49613694312
21
-4.80362273017
0
LINE
8
STATOR
10
3.49613694312
20
-4.80362273017
11
4.01052078194
21
-4.45386013148
0
LINE
8
STATOR
10
4.01052078194
20
-4.45386013148
11
4.45386013148
21
-4.01052078194
0
LINE
8
STATOR
10
4.45386013148
20
-4.01052078194
11
4.80362273017
21
-3.49613694312
0
LINE
8
STATOR
10
4.80362273017
20
-3.49613694312
11
5.04508497187
21
-2.93892626146
0
LINE
8
STATOR
10
5.04508497187
20
-2.93892626146
11
5.17269614381
21
-2.37011698052
0
LINE
8
STATOR
10
5.17269614381
20
-2.37011698052
11
5.19055039459
21
-1.82098311822
0
LINE
8
STATOR
10
5.19055039459
20
-1.82098311822
11
5.11192051462
21
-1.31987946345
0
LINE
8
STATOR
10
5.11192051462
20
-1.31987946345
11
4.95789942382
21
-0.889566247128
0
LINE
8
STATOR
10
4.95789942382
20
-0.889566247128
11
4.75528258148
21
-0.545084971875
0
LINE
8
STATOR
10
4.75528258148
20
-0.545084971875
11
4.53389881127
21
-0.292392919529
0
LINE
8
STATOR
10
4.53389881127
20
-0.292392919529
11
4.32365100135
21
-0.127889578554
0
LINE
8
STATOR
10
4.32365100135
20
-0.127889578554
11
4.1515565122
21
-0.038880915529
0
LINE
8
STATOR
10
4.1515565122
20
-0.038880915529
11
4.03907712585
21
-0.00493560327162
0
LINE
8
STATOR
10
4.03907712585
20
-0.00493560327162
11
4.0
21
8.881784197e-16
0
ENDSEC
0
EOF
